<svg xmlns="http://www.w3.org/2000/svg" xmlns:xlink="http://www.w3.org/1999/xlink" width="64" height="64"><defs><linearGradient x1="24" y1="5" x2="24" y2="43" id="j" xlink:href="#a" gradientUnits="userSpaceOnUse" gradientTransform="matrix(1.43243 0 0 1.43628 -2.378 -2.47)"/><linearGradient id="a"><stop offset="0" stop-color="#fff"/><stop offset=".063" stop-color="#fff" stop-opacity=".235"/><stop offset=".951" stop-color="#fff" stop-opacity=".157"/><stop offset="1" stop-color="#fff" stop-opacity=".392"/></linearGradient><radialGradient cx="6.953" cy="9.957" r="12.672" fx="6.953" fy="9.957" id="i" xlink:href="#b" gradientUnits="userSpaceOnUse" gradientTransform="matrix(0 8.37415 -10.28078 0 135.539 -79.763)"/><radialGradient cx="4.993" cy="43.5" r="2.5" fx="4.993" fy="43.5" id="f" xlink:href="#c" gradientUnits="userSpaceOnUse" gradientTransform="matrix(2.00378 0 0 1.4 27.988 -17.4)"/><linearGradient id="c"><stop offset="0" stop-color="#181818"/><stop offset="1" stop-color="#181818" stop-opacity="0"/></linearGradient><radialGradient cx="4.993" cy="43.5" r="2.5" fx="4.993" fy="43.5" id="g" xlink:href="#d" gradientUnits="userSpaceOnUse" gradientTransform="matrix(2.00378 0 0 1.4 -20.012 -104.4)"/><linearGradient id="d"><stop offset="0" stop-color="#181818"/><stop offset="1" stop-color="#181818" stop-opacity="0"/></linearGradient><linearGradient id="e"><stop offset="0" stop-color="#181818" stop-opacity="0"/><stop offset=".5" stop-color="#181818"/><stop offset="1" stop-color="#181818" stop-opacity="0"/></linearGradient><linearGradient x1="25.058" y1="47.028" x2="25.058" y2="39.999" id="h" xlink:href="#e" gradientUnits="userSpaceOnUse"/><linearGradient id="b"><stop offset="0" stop-color="#404648"/><stop offset="1" stop-color="#0c1011"/></linearGradient></defs><g opacity=".6"><path fill="url(#f)" d="M38 40h5v7h-5z" transform="matrix(1.57895 0 0 .71429 -5.895 27.929)"/><path transform="matrix(-1.57895 0 0 -.71429 -5.895 27.929)" fill="url(#g)" d="M-10-47h5v7h-5z"/><path fill="url(#h)" d="M10 40h28v7H10z" transform="matrix(1.57895 0 0 .71429 -5.895 27.929)"/></g><rect style="marker:none" y="4.5" x="4.5" ry="3" rx="3" height="55" width="55" color="#000" overflow="visible" opacity=".9" fill="url(#i)"/><rect y="5.429" x="5.5" ry="2" rx="2" height="53.142" width="53" opacity=".3" fill="none" stroke="url(#j)" stroke-linecap="round" stroke-linejoin="round"/><rect style="marker:none" y="4.5" x="4.5" ry="3" rx="3" height="55" width="55" color="#000" overflow="visible" opacity=".7" fill="none" stroke="#000" stroke-linecap="round" stroke-linejoin="round"/><path style="isolation:auto;mix-blend-mode:normal;marker:none" d="M17 14.004a.997.997 0 0 0-.996.996v1.54c-.493.186-1.014.32-1.414.667a.997.997 0 0 0-.004.004c-.95.829-1.44 2.05-1.44 3.387 0 .719.138 1.402.442 2.006.28.554.66 1.048 1.125 1.462.487.435 1.118.812 1.918 1.2.78.382 1.312.68 1.451.777a.997.997 0 0 0 .008.006c.187.127.29.237.334.3a.997.997 0 0 0 .008.012c.015.022.02.016.02.084 0 .215 0 .16-.054.2a.997.997 0 0 0-.007.005c-.06.045-.272.14-.713.14-.369 0-.81-.063-1.319-.2-.49-.134-1.148-.383-1.943-.748a.997.997 0 0 0-1.412.906v2.49a.997.997 0 0 0 .547.891c.74.373 1.602.48 2.453.61V32a.997.997 0 0 0 .996.996h2a.997.997 0 0 0 .996-.996v-1.557c.5-.184 1.026-.321 1.436-.66l.002-.002c1.017-.837 1.562-2.093 1.562-3.467 0-.995-.273-1.93-.836-2.68-.587-.788-1.494-1.399-2.717-2.001-.849-.418-1.412-.732-1.52-.805a1.107 1.107 0 0 1-.222-.209c-.008-.013-.02-.027-.02-.107 0-.151 0-.126.065-.184.03-.027.134-.1.469-.1.327 0 .66.043 1.01.133a.997.997 0 0 0 .002.002c.355.09.861.265 1.486.53a.997.997 0 0 0 1.312-.545l.84-2.084a.997.997 0 0 0-.517-1.284 13.212 13.212 0 0 0-1.969-.709h-.002c-.13-.034-.253-.038-.38-.064V15a.997.997 0 0 0-.997-.996h-2zm9 19a.997.997 0 0 0-.996.996v2a.997.997 0 0 0 .996.996h11a.997.997 0 0 0 .996-.996v-2a.997.997 0 0 0-.996-.996H26z" color="#000" overflow="visible" opacity=".15"/><path style="isolation:auto;mix-blend-mode:normal;marker:none;filter-blend-mode:normal;filter-gaussianBlur-deviation:0" d="M17 15v2.143c-.694.148-1.289.412-1.758.818-.733.64-1.1 1.518-1.1 2.637 0 .594.113 1.112.337 1.556.223.444.523.834.898 1.168.375.335.938.684 1.687 1.047.8.392 1.329.677 1.586.856.263.178.462.366.596.562.134.19.201.41.201.658 0 .444-.153.78-.46 1.004-.303.225-.738.336-1.31.336a6.093 6.093 0 0 1-1.577-.232c-.571-.156-1.272-.424-2.1-.805v2.49c.882.445 1.886.683 3 .739V32h2v-2.17c.71-.157 1.318-.419 1.799-.816.8-.658 1.201-1.558 1.201-2.7 0-.824-.213-1.518-.639-2.084-.425-.57-1.21-1.138-2.357-1.703-.868-.426-1.42-.721-1.654-.882a1.873 1.873 0 0 1-.504-.51 1.196 1.196 0 0 1-.16-.623c0-.38.131-.69.394-.926.263-.236.642-.354 1.135-.354.414 0 .832.055 1.258.164.43.11.974.302 1.629.579l.84-2.084c-.633-.283-1.24-.5-1.823-.657a6.736 6.736 0 0 0-1.119-.19V15h-2zm9 19v2h11v-2H26z" color="#000" overflow="visible" opacity=".3"/><path style="isolation:auto;mix-blend-mode:normal;marker:none" d="M17 14v2.143c-.694.148-1.289.412-1.758.818-.733.64-1.1 1.518-1.1 2.637 0 .594.113 1.112.337 1.556.223.444.523.834.898 1.168.375.335.938.684 1.687 1.047.8.392 1.329.677 1.586.856.263.178.462.366.596.562.134.19.201.41.201.658 0 .444-.153.78-.46 1.004-.303.225-.738.336-1.31.336a6.093 6.093 0 0 1-1.577-.232c-.571-.156-1.272-.424-2.1-.805v2.49c.882.445 1.886.683 3 .739V31h2v-2.17c.71-.157 1.318-.419 1.799-.816.8-.658 1.201-1.558 1.201-2.7 0-.824-.213-1.518-.639-2.084-.425-.57-1.21-1.138-2.357-1.703-.868-.426-1.42-.721-1.654-.882a1.873 1.873 0 0 1-.504-.51 1.196 1.196 0 0 1-.16-.623c0-.38.131-.69.394-.926.263-.236.642-.354 1.135-.354.414 0 .832.055 1.258.164.43.11.974.302 1.629.579l.84-2.084c-.633-.283-1.24-.5-1.823-.657a6.736 6.736 0 0 0-1.119-.19V14h-2zm9 19v2h11v-2H26z" color="#000" overflow="visible" fill="#fff"/></svg>